<?xml version="1.0" encoding="utf-8"?>
<!-- Generator: Adobe Illustrator 23.0.1, SVG Export Plug-In . SVG Version: 6.00 Build 0)  -->
<svg version="1.1" xmlns="http://www.w3.org/2000/svg" xmlns:xlink="http://www.w3.org/1999/xlink" x="0px" y="0px"
	 viewBox="0 0 512 512" style="enable-background:new 0 0 512 512;" xml:space="preserve">
<style type="text/css">
	.st0{fill:#333333;}
	.st1{fill:none;stroke:#333333;stroke-width:32;stroke-linecap:round;stroke-linejoin:round;stroke-miterlimit:10;}
</style>
<g id="Layer_1">
</g>
<g id="Layer_2">
	<g>
		<g>
			<g>
				<path class="st0" d="M207.7,221h-76.3c-7.34,0-13.3-5.95-13.3-13.3v-76.3c0-7.34,5.95-13.3,13.3-13.3h76.3
					c7.34,0,13.3,5.95,13.3,13.3v76.3C221,215.05,215.05,221,207.7,221z"/>
			</g>
			<g>
				<path class="st0" d="M380.6,221h-76.3c-7.34,0-13.3-5.95-13.3-13.3v-76.3c0-7.34,5.95-13.3,13.3-13.3h76.3
					c7.34,0,13.3,5.95,13.3,13.3v76.3C393.89,215.05,387.94,221,380.6,221z"/>
			</g>
		</g>
		<g>
			<g>
				<path class="st0" d="M207.7,393.89h-76.3c-7.34,0-13.3-5.95-13.3-13.3v-76.3c0-7.34,5.95-13.3,13.3-13.3h76.3
					c7.34,0,13.3,5.95,13.3,13.3v76.3C221,387.94,215.05,393.89,207.7,393.89z"/>
			</g>
			<g>
				<path class="st0" d="M380.6,393.89h-76.3c-7.34,0-13.3-5.95-13.3-13.3v-76.3c0-7.34,5.95-13.3,13.3-13.3h76.3
					c7.34,0,13.3,5.95,13.3,13.3v76.3C393.89,387.94,387.94,393.89,380.6,393.89z"/>
			</g>
		</g>
	</g>
</g>
</svg>
