<?xml version="1.0" encoding="utf-8"?>
<!-- Generator: Adobe Illustrator 23.0.1, SVG Export Plug-In . SVG Version: 6.00 Build 0)  -->
<svg version="1.1" xmlns="http://www.w3.org/2000/svg" xmlns:xlink="http://www.w3.org/1999/xlink" x="0px" y="0px"
	 viewBox="0 0 512 512" style="enable-background:new 0 0 512 512;" xml:space="preserve">
<style type="text/css">
	.st0{fill:#333333;}
	.st1{fill:none;stroke:#333333;stroke-width:32;stroke-linecap:round;stroke-linejoin:round;stroke-miterlimit:10;}
</style>
<g id="Layer_1">
</g>
<g id="Layer_2">
	<g>
		<path class="st0" d="M396.11,50.05H115.89c-35.09,0-63.53,28.44-63.53,63.53v259.84c0,35.09,28.44,63.53,63.53,63.53h8.97
			c-0.22,1.23-0.36,2.49-0.36,3.78l0,0c0,11.72,9.5,21.21,21.21,21.21h40.49c11.72,0,21.21-9.5,21.21-21.21l0,0
			c0-1.29-0.13-2.55-0.36-3.78h97.89c-0.22,1.23-0.36,2.49-0.36,3.78l0,0c0,11.72,9.5,21.21,21.21,21.21h40.49
			c11.72,0,21.21-9.5,21.21-21.21l0,0c0-1.29-0.13-2.55-0.36-3.78h8.97c35.09,0,63.53-28.44,63.53-63.53V113.58
			C459.64,78.49,431.2,50.05,396.11,50.05z M182.5,385.9c-20.07,0-36.35-16.27-36.35-36.35s16.27-36.35,36.35-36.35
			c20.07,0,36.35,16.27,36.35,36.35S202.57,385.9,182.5,385.9z M293.15,349.55c0-20.07,16.27-36.35,36.35-36.35
			c20.07,0,36.35,16.27,36.35,36.35s-16.27,36.35-36.35,36.35C309.43,385.9,293.15,369.63,293.15,349.55z M390.3,231.1
			c0,14.03-11.37,25.4-25.4,25.4H147.11c-14.03,0-25.4-11.37-25.4-25.4v-91.77c0-14.03,11.37-25.4,25.4-25.4h217.78
			c14.03,0,25.4,11.37,25.4,25.4V231.1z"/>
	</g>
</g>
</svg>
