<?xml version="1.0" encoding="utf-8"?>
<!-- Generator: Adobe Illustrator 23.0.1, SVG Export Plug-In . SVG Version: 6.00 Build 0)  -->
<svg version="1.1" xmlns="http://www.w3.org/2000/svg" xmlns:xlink="http://www.w3.org/1999/xlink" x="0px" y="0px"
	 viewBox="0 0 512 512" style="enable-background:new 0 0 512 512;" xml:space="preserve">
<style type="text/css">
	.st0{fill:#333333;}
	.st1{fill:none;stroke:#333333;stroke-width:32;stroke-linecap:round;stroke-linejoin:round;stroke-miterlimit:10;}
</style>
<g id="Layer_1">
</g>
<g id="Layer_2">
	<g>
		<g>
			<path class="st0" d="M440.93,137.14H71.07c-13.9,0-25.41,10.3-27.29,23.68c-0.19,1.27-0.28,2.57-0.28,3.89v182.58
				c0,15.23,12.35,27.57,27.57,27.57h369.86c15.22,0,27.57-12.34,27.57-27.57V164.71C468.5,149.49,456.15,137.14,440.93,137.14z
				 M418.5,288.87c-6.75,3.33-12.98,7.54-18.54,12.49c-7.47,6.64-13.74,14.59-18.46,23.5h-251c-4.72-8.91-10.99-16.86-18.46-23.5
				c-5.56-4.95-11.79-9.16-18.54-12.49v-65.74c15.79-7.8,28.77-20.44,37-35.99h251c8.23,15.55,21.21,28.19,37,35.99V288.87z"/>
		</g>
		<g>
			<path class="st0" d="M256,208.51c-26.19,0-47.49,21.3-47.49,47.49s21.3,47.49,47.49,47.49s47.49-21.3,47.49-47.49
				S282.19,208.51,256,208.51z M256,271.49c-8.54,0-15.49-6.95-15.49-15.49s6.95-15.49,15.49-15.49s15.49,6.95,15.49,15.49
				S264.54,271.49,256,271.49z"/>
		</g>
	</g>
</g>
</svg>
