<?xml version="1.0" encoding="utf-8"?>
<!-- Generator: Adobe Illustrator 23.0.1, SVG Export Plug-In . SVG Version: 6.00 Build 0)  -->
<svg version="1.1" xmlns="http://www.w3.org/2000/svg" xmlns:xlink="http://www.w3.org/1999/xlink" x="0px" y="0px"
	 viewBox="0 0 512 512" style="enable-background:new 0 0 512 512;" xml:space="preserve">
<style type="text/css">
	.st0{fill:#333333;}
	.st1{fill:none;stroke:#333333;stroke-width:32;stroke-linecap:round;stroke-linejoin:round;stroke-miterlimit:10;}
</style>
<g id="Layer_1">
</g>
<g id="Layer_2">
	<g>
		<path class="st0" d="M384.82,113H63.18C52.04,113,43,122.04,43,133.18v245.64C43,389.96,52.04,399,63.18,399h321.64
			c11.15,0,20.18-9.04,20.18-20.18V133.18C405,122.04,395.96,113,384.82,113z M164.83,323.07c0,8.84-5.46,16.01-12.2,16.01H115.7
			c-6.74,0-12.2-7.17-12.2-16.01V188.93c0-8.84,5.46-16.01,12.2-16.01h36.93c6.74,0,12.2,7.17,12.2,16.01V323.07z"/>
	</g>
	<g>
		<path class="st0" d="M455.76,207h-22.67v98h22.67c7.31,0,13.24-5.93,13.24-13.24v-71.52C469,212.93,463.07,207,455.76,207z"/>
	</g>
</g>
</svg>
