<?xml version="1.0" encoding="utf-8"?>
<!-- Generator: Adobe Illustrator 23.0.1, SVG Export Plug-In . SVG Version: 6.00 Build 0)  -->
<svg version="1.1" xmlns="http://www.w3.org/2000/svg" xmlns:xlink="http://www.w3.org/1999/xlink" x="0px" y="0px"
	 viewBox="0 0 512 512" style="enable-background:new 0 0 512 512;" xml:space="preserve">
<style type="text/css">
	.st0{fill:#333333;}
	.st1{fill:none;stroke:#333333;stroke-width:32;stroke-linecap:round;stroke-linejoin:round;stroke-miterlimit:10;}
</style>
<g id="Layer_1">
</g>
<g id="Layer_2">
	<g>
		<g>
			<rect x="112.14" y="240.78" class="st0" width="287.71" height="212.75"/>
		</g>
		<g>
			<path class="st0" d="M155.64,124.28c-9.98,17.14-15.7,37.06-15.7,58.33v26.17h232.12v-26.17c0-21.26-5.72-41.19-15.7-58.33
				l38.5-38.5c6.25-6.25,6.25-16.38,0-22.63c-6.25-6.25-16.38-6.25-22.63,0l-35.8,35.8c-20.86-20.06-49.21-32.4-80.44-32.4
				s-59.58,12.34-80.44,32.4l-35.8-35.8c-6.25-6.25-16.38-6.25-22.63,0c-6.25,6.25-6.25,16.38,0,22.63L155.64,124.28z
				 M285.91,156.68c0.05-0.52,0.13-1.04,0.23-1.56c0.1-0.51,0.23-1.02,0.38-1.52c0.16-0.49,0.33-0.99,0.53-1.47
				c0.2-0.48,0.43-0.96,0.67-1.41c0.25-0.46,0.52-0.92,0.8-1.35c0.29-0.44,0.61-0.86,0.94-1.26c0.33-0.41,0.68-0.8,1.05-1.17
				c0.37-0.37,0.76-0.73,1.17-1.06c0.4-0.33,0.83-0.64,1.26-0.93c0.44-0.29,0.89-0.56,1.35-0.81c0.46-0.24,0.94-0.46,1.42-0.66
				c0.48-0.2,0.97-0.38,1.47-0.53c0.5-0.15,1.01-0.28,1.52-0.39c0.51-0.1,1.03-0.18,1.55-0.23c1.05-0.1,2.11-0.1,3.15,0
				c0.52,0.05,1.04,0.13,1.55,0.23c0.51,0.11,1.03,0.24,1.52,0.39c0.5,0.15,1,0.33,1.48,0.53c0.48,0.2,0.95,0.42,1.41,0.66
				c0.46,0.25,0.92,0.52,1.35,0.81c0.43,0.29,0.86,0.6,1.26,0.93c0.41,0.33,0.8,0.69,1.17,1.06c0.37,0.37,0.72,0.76,1.06,1.17
				c0.33,0.4,0.64,0.82,0.93,1.26c0.29,0.43,0.56,0.89,0.8,1.35c0.25,0.45,0.47,0.93,0.67,1.41c0.2,0.48,0.38,0.98,0.53,1.47
				c0.15,0.5,0.28,1.01,0.39,1.52c0.1,0.52,0.18,1.04,0.23,1.56c0.05,0.52,0.08,1.05,0.08,1.57s-0.03,1.05-0.08,1.57
				s-0.13,1.04-0.23,1.56c-0.11,0.51-0.24,1.02-0.39,1.52c-0.15,0.49-0.33,0.99-0.53,1.47c-0.2,0.48-0.42,0.96-0.67,1.42
				c-0.24,0.46-0.51,0.91-0.8,1.34c-0.29,0.44-0.6,0.86-0.93,1.27c-0.34,0.4-0.69,0.8-1.06,1.17c-0.37,0.37-0.76,0.72-1.17,1.05
				c-0.4,0.33-0.83,0.65-1.26,0.93c-0.44,0.29-0.89,0.56-1.35,0.81c-0.46,0.24-0.93,0.47-1.41,0.66c-0.48,0.2-0.98,0.38-1.48,0.53
				c-0.5,0.16-1.01,0.29-1.52,0.39c-0.51,0.1-1.03,0.18-1.55,0.23c-0.52,0.05-1.05,0.08-1.57,0.08c-0.53,0-1.06-0.03-1.58-0.08
				c-0.51-0.05-1.04-0.13-1.55-0.23c-0.51-0.1-1.02-0.23-1.52-0.39c-0.5-0.15-0.99-0.33-1.47-0.53c-0.48-0.19-0.96-0.42-1.42-0.66
				c-0.46-0.25-0.91-0.52-1.34-0.81c-0.44-0.28-0.86-0.6-1.27-0.93c-0.4-0.33-0.8-0.68-1.17-1.05c-0.37-0.37-0.72-0.77-1.05-1.17
				c-0.33-0.41-0.65-0.83-0.94-1.27c-0.28-0.43-0.55-0.88-0.8-1.34c-0.24-0.46-0.47-0.94-0.67-1.42c-0.2-0.48-0.37-0.98-0.53-1.47
				c-0.15-0.5-0.28-1.01-0.38-1.52c-0.1-0.52-0.18-1.04-0.23-1.56c-0.06-0.52-0.08-1.05-0.08-1.57S285.85,157.2,285.91,156.68z
				 M194.25,156.68c0.05-0.52,0.13-1.04,0.23-1.56c0.11-0.51,0.24-1.02,0.39-1.52c0.15-0.49,0.33-0.99,0.53-1.47
				c0.2-0.48,0.42-0.96,0.67-1.41c0.24-0.46,0.51-0.92,0.8-1.35c0.29-0.44,0.6-0.86,0.93-1.26c0.33-0.41,0.69-0.8,1.06-1.17
				c0.37-0.37,0.76-0.73,1.17-1.06c0.4-0.33,0.83-0.64,1.26-0.93c0.43-0.29,0.89-0.56,1.35-0.81c0.46-0.24,0.93-0.46,1.41-0.66
				c0.48-0.2,0.98-0.38,1.48-0.53c0.5-0.15,1.01-0.28,1.52-0.39c0.51-0.1,1.03-0.18,1.55-0.23c1.05-0.1,2.1-0.1,3.15,0
				c0.52,0.05,1.04,0.13,1.55,0.23c0.51,0.11,1.02,0.24,1.52,0.39c0.5,0.15,0.99,0.33,1.47,0.53c0.48,0.2,0.96,0.42,1.42,0.66
				c0.46,0.25,0.91,0.52,1.35,0.81c0.43,0.29,0.86,0.6,1.26,0.93c0.41,0.33,0.8,0.69,1.17,1.06c0.37,0.37,0.72,0.76,1.05,1.17
				c0.33,0.4,0.65,0.82,0.94,1.26c0.28,0.43,0.55,0.89,0.8,1.35c0.24,0.45,0.47,0.93,0.67,1.41c0.2,0.48,0.37,0.98,0.53,1.47
				c0.15,0.5,0.28,1.01,0.38,1.52c0.1,0.52,0.18,1.04,0.23,1.56c0.06,0.52,0.08,1.05,0.08,1.57s-0.02,1.05-0.08,1.57
				c-0.05,0.52-0.13,1.04-0.23,1.56c-0.1,0.51-0.23,1.02-0.38,1.51c-0.16,0.5-0.33,1-0.53,1.48c-0.2,0.48-0.43,0.96-0.67,1.42
				c-0.25,0.46-0.52,0.91-0.8,1.34c-0.29,0.44-0.61,0.86-0.94,1.27c-0.33,0.4-0.69,0.8-1.06,1.16c-0.37,0.37-0.76,0.73-1.16,1.06
				c-0.41,0.33-0.83,0.65-1.27,0.93c-0.43,0.29-0.88,0.56-1.34,0.81c-0.46,0.24-0.94,0.47-1.42,0.66c-0.48,0.2-0.97,0.38-1.47,0.53
				c-0.5,0.15-1.01,0.28-1.52,0.39c-0.51,0.1-1.03,0.18-1.55,0.23c-0.52,0.05-1.05,0.08-1.58,0.08c-0.52,0-1.05-0.03-1.57-0.08
				c-0.52-0.05-1.04-0.13-1.55-0.23c-0.51-0.11-1.02-0.24-1.52-0.39c-0.5-0.15-1-0.33-1.48-0.53c-0.48-0.19-0.95-0.42-1.41-0.66
				c-0.46-0.25-0.92-0.52-1.35-0.81c-0.43-0.28-0.86-0.6-1.26-0.93c-0.41-0.33-0.8-0.69-1.17-1.06c-0.37-0.36-0.73-0.76-1.06-1.16
				c-0.33-0.41-0.64-0.83-0.93-1.27c-0.29-0.43-0.56-0.88-0.8-1.34c-0.25-0.46-0.47-0.94-0.67-1.42c-0.2-0.48-0.38-0.98-0.53-1.48
				c-0.15-0.49-0.28-1-0.39-1.51c-0.1-0.52-0.18-1.04-0.23-1.56s-0.08-1.05-0.08-1.57S194.2,157.2,194.25,156.68z"/>
		</g>
		<g>
			<path class="st0" d="M43.5,309.42v112.52h36.64V248.68C58.35,260.18,43.5,283.06,43.5,309.42z"/>
		</g>
		<g>
			<path class="st0" d="M448.4,260.88c-4.85-4.85-10.42-8.98-16.54-12.2v173.26h36.64V309.42
				C468.5,290.46,460.82,273.3,448.4,260.88z"/>
		</g>
	</g>
</g>
</svg>
