<?xml version="1.0" encoding="utf-8"?>
<!-- Generator: Adobe Illustrator 23.0.1, SVG Export Plug-In . SVG Version: 6.00 Build 0)  -->
<svg version="1.1" xmlns="http://www.w3.org/2000/svg" xmlns:xlink="http://www.w3.org/1999/xlink" x="0px" y="0px"
	 viewBox="0 0 512 512" style="enable-background:new 0 0 512 512;" xml:space="preserve">
<style type="text/css">
	.st0{fill:#333333;}
	.st1{fill:none;stroke:#333333;stroke-width:32;stroke-linecap:round;stroke-linejoin:round;stroke-miterlimit:10;}
</style>
<g id="Layer_1">
</g>
<g id="Layer_2">
	<g>
		<path class="st0" d="M362.42,105.71H149.58c-58.59,0-106.08,47.49-106.08,106.08v61.98v84.52c0,26.51,21.49,47.99,47.99,47.99l0,0
			c13.04,0,25.51-5.3,34.56-14.69l68.52-71.1c15.56-16.15,37.02-25.27,59.45-25.27h3.97c22.43,0,43.89,9.12,59.45,25.27l68.52,71.1
			c9.05,9.39,21.52,14.69,34.56,14.69l0,0c26.51,0,47.99-21.49,47.99-47.99v-84.52v-61.98C468.5,153.21,421.01,105.71,362.42,105.71
			z M188.51,230.93h-17.87v17.87c0,8.84-7.16,16-16,16s-16-7.16-16-16v-17.87h-17.87c-8.84,0-16-7.16-16-16s7.16-16,16-16h17.87
			v-17.87c0-8.84,7.16-16,16-16s16,7.16,16,16v17.87h17.87c8.84,0,16,7.16,16,16S197.35,230.93,188.51,230.93z M328.18,216.5
			c-0.06,0.52-0.13,1.04-0.24,1.55c-0.1,0.51-0.23,1.02-0.38,1.52c-0.15,0.5-0.33,0.99-0.53,1.48c-0.2,0.48-0.43,0.95-0.67,1.41
			c-0.25,0.46-0.52,0.91-0.8,1.35c-0.29,0.43-0.61,0.86-0.94,1.26c-0.33,0.41-0.68,0.8-1.05,1.17c-0.37,0.37-0.76,0.72-1.17,1.06
			c-0.4,0.33-0.83,0.64-1.26,0.93c-0.44,0.29-0.89,0.56-1.35,0.8c-0.46,0.25-0.93,0.47-1.42,0.67c-0.48,0.2-0.97,0.38-1.47,0.53
			c-0.5,0.15-1.01,0.28-1.52,0.38c-0.51,0.11-1.03,0.18-1.55,0.24c-0.52,0.05-1.05,0.08-1.57,0.08c-0.53,0-1.06-0.03-1.58-0.08
			c-0.52-0.06-1.04-0.13-1.55-0.24c-0.51-0.1-1.02-0.23-1.52-0.38c-0.5-0.15-0.99-0.33-1.47-0.53c-0.49-0.2-0.96-0.42-1.42-0.67
			c-0.46-0.24-0.91-0.51-1.35-0.8c-0.43-0.29-0.86-0.6-1.26-0.93c-0.41-0.34-0.8-0.69-1.17-1.06c-0.37-0.37-0.72-0.76-1.06-1.17
			c-0.32-0.4-0.64-0.83-0.93-1.26c-0.29-0.44-0.56-0.89-0.8-1.35c-0.25-0.46-0.47-0.93-0.67-1.41c-0.2-0.49-0.38-0.98-0.53-1.48
			c-0.15-0.5-0.28-1.01-0.38-1.52c-0.1-0.51-0.18-1.03-0.23-1.55c-0.06-0.52-0.08-1.05-0.08-1.57c0-0.53,0.02-1.06,0.08-1.58
			c0.05-0.52,0.13-1.04,0.23-1.55c0.1-0.51,0.23-1.02,0.38-1.52c0.15-0.5,0.33-0.99,0.53-1.47c0.2-0.49,0.42-0.96,0.67-1.42
			c0.24-0.46,0.51-0.91,0.8-1.35c0.29-0.43,0.61-0.86,0.93-1.26c0.34-0.41,0.69-0.8,1.06-1.17c0.37-0.37,0.76-0.72,1.17-1.06
			c0.4-0.32,0.83-0.64,1.26-0.93c0.44-0.29,0.89-0.56,1.35-0.8c0.46-0.24,0.93-0.47,1.41-0.67c0.49-0.2,0.98-0.38,1.48-0.53
			c0.5-0.15,1.01-0.28,1.52-0.38c0.51-0.1,1.03-0.18,1.55-0.23c1.05-0.11,2.1-0.11,3.15,0c0.52,0.05,1.04,0.13,1.55,0.23
			c0.51,0.1,1.02,0.23,1.52,0.38c0.5,0.15,0.99,0.33,1.47,0.53c0.49,0.2,0.96,0.43,1.42,0.67c0.46,0.24,0.91,0.51,1.35,0.8
			c0.43,0.29,0.86,0.61,1.26,0.93c0.41,0.34,0.8,0.69,1.17,1.06c0.37,0.37,0.72,0.76,1.05,1.17c0.33,0.4,0.65,0.83,0.94,1.26
			c0.28,0.44,0.55,0.89,0.8,1.35c0.24,0.46,0.47,0.93,0.67,1.42c0.2,0.48,0.38,0.97,0.53,1.47c0.15,0.5,0.28,1.01,0.38,1.52
			c0.11,0.51,0.18,1.03,0.24,1.55c0.05,0.52,0.08,1.05,0.08,1.58C328.26,215.45,328.23,215.98,328.18,216.5z M367.67,255.99
			c-0.06,0.52-0.13,1.04-0.24,1.55c-0.1,0.51-0.23,1.02-0.38,1.52s-0.33,0.99-0.53,1.47c-0.2,0.49-0.42,0.96-0.67,1.42
			c-0.24,0.46-0.51,0.91-0.8,1.35c-0.29,0.43-0.61,0.86-0.93,1.26c-0.34,0.41-0.69,0.8-1.06,1.17s-0.76,0.72-1.17,1.06
			c-0.4,0.32-0.83,0.64-1.26,0.93c-0.44,0.28-0.89,0.55-1.35,0.8c-0.46,0.24-0.93,0.47-1.42,0.67c-0.48,0.2-0.97,0.37-1.47,0.53
			c-0.5,0.15-1.01,0.28-1.52,0.38c-0.51,0.1-1.03,0.18-1.55,0.23c-0.52,0.06-1.05,0.08-1.57,0.08c-0.53,0-1.06-0.02-1.58-0.08
			c-0.52-0.05-1.04-0.13-1.55-0.23c-0.51-0.1-1.02-0.23-1.52-0.38c-0.5-0.16-0.99-0.33-1.48-0.53c-0.48-0.2-0.95-0.43-1.41-0.67
			c-0.46-0.25-0.91-0.52-1.35-0.8c-0.43-0.29-0.86-0.61-1.26-0.93c-0.41-0.34-0.8-0.69-1.17-1.06s-0.72-0.76-1.06-1.17
			c-0.33-0.4-0.64-0.83-0.93-1.26c-0.29-0.44-0.56-0.89-0.8-1.35s-0.47-0.93-0.67-1.42c-0.2-0.48-0.38-0.97-0.53-1.47
			c-0.15-0.5-0.28-1.01-0.38-1.52c-0.11-0.51-0.18-1.03-0.24-1.55c-0.05-0.52-0.08-1.05-0.08-1.58c0-0.52,0.03-1.05,0.08-1.57
			c0.06-0.52,0.13-1.04,0.24-1.55c0.1-0.51,0.23-1.02,0.38-1.52c0.15-0.5,0.33-0.99,0.53-1.47c0.2-0.49,0.43-0.96,0.67-1.42
			s0.51-0.91,0.8-1.35c0.29-0.43,0.6-0.86,0.93-1.26c0.34-0.41,0.69-0.8,1.06-1.17s0.76-0.72,1.17-1.06
			c0.4-0.32,0.83-0.64,1.26-0.93c0.44-0.29,0.89-0.56,1.35-0.8c0.46-0.25,0.93-0.47,1.41-0.67c0.49-0.2,0.98-0.38,1.48-0.53
			c0.5-0.15,1.01-0.28,1.52-0.38c0.51-0.11,1.03-0.18,1.55-0.24c1.05-0.1,2.11-0.1,3.15,0c0.52,0.06,1.04,0.13,1.55,0.24
			c0.51,0.1,1.02,0.23,1.52,0.38c0.5,0.15,0.99,0.33,1.47,0.53c0.49,0.2,0.96,0.42,1.42,0.67c0.46,0.24,0.91,0.51,1.35,0.8
			c0.43,0.29,0.86,0.61,1.26,0.93c0.41,0.34,0.8,0.69,1.17,1.06s0.72,0.76,1.06,1.17c0.32,0.4,0.64,0.83,0.93,1.26
			c0.29,0.44,0.56,0.89,0.8,1.35c0.25,0.46,0.47,0.93,0.67,1.42c0.2,0.48,0.38,0.97,0.53,1.47s0.28,1.01,0.38,1.52
			c0.11,0.51,0.18,1.03,0.24,1.55c0.05,0.52,0.08,1.05,0.08,1.57C367.75,254.94,367.72,255.47,367.67,255.99z M367.67,177.01
			c-0.06,0.52-0.13,1.04-0.24,1.55c-0.1,0.51-0.23,1.02-0.38,1.52s-0.33,1-0.53,1.48c-0.2,0.48-0.42,0.95-0.67,1.41
			c-0.24,0.46-0.51,0.92-0.8,1.35c-0.29,0.43-0.61,0.86-0.93,1.26c-0.34,0.41-0.69,0.8-1.06,1.17s-0.76,0.73-1.17,1.06
			c-0.4,0.33-0.83,0.64-1.26,0.93c-0.44,0.29-0.89,0.56-1.35,0.8c-0.46,0.25-0.93,0.47-1.42,0.67c-0.48,0.2-0.97,0.38-1.47,0.53
			c-0.5,0.15-1.01,0.28-1.52,0.38c-0.51,0.11-1.03,0.18-1.55,0.24c-0.52,0.05-1.05,0.08-1.57,0.08c-0.53,0-1.06-0.03-1.58-0.08
			c-0.52-0.06-1.04-0.13-1.55-0.24c-0.51-0.1-1.02-0.23-1.52-0.38c-0.5-0.15-0.99-0.33-1.48-0.53c-0.48-0.2-0.95-0.42-1.41-0.67
			c-0.46-0.24-0.91-0.51-1.35-0.8c-0.43-0.29-0.86-0.6-1.26-0.93c-0.41-0.33-0.8-0.69-1.17-1.06s-0.72-0.76-1.06-1.17
			c-0.33-0.4-0.64-0.83-0.93-1.26c-0.29-0.43-0.56-0.89-0.8-1.35c-0.25-0.46-0.47-0.93-0.67-1.41c-0.2-0.48-0.38-0.98-0.53-1.48
			c-0.15-0.5-0.28-1.01-0.38-1.52c-0.11-0.51-0.18-1.03-0.24-1.55c-0.05-0.52-0.08-1.05-0.08-1.57c0-0.53,0.03-1.06,0.08-1.58
			c0.06-0.52,0.13-1.04,0.24-1.55c0.1-0.51,0.23-1.02,0.38-1.52c0.15-0.5,0.33-0.99,0.53-1.47c0.2-0.48,0.43-0.96,0.67-1.42
			s0.51-0.91,0.8-1.34c0.29-0.44,0.6-0.87,0.93-1.27c0.34-0.4,0.69-0.8,1.06-1.17s0.76-0.72,1.17-1.05c0.4-0.33,0.83-0.65,1.26-0.94
			c0.44-0.28,0.89-0.55,1.35-0.8c0.46-0.24,0.93-0.47,1.41-0.67c0.49-0.2,0.98-0.38,1.48-0.53s1.01-0.28,1.52-0.38
			c0.51-0.1,1.03-0.18,1.55-0.23c1.05-0.11,2.11-0.11,3.15,0c0.52,0.05,1.04,0.13,1.55,0.23c0.51,0.1,1.02,0.23,1.52,0.38
			s0.99,0.33,1.47,0.53c0.49,0.2,0.96,0.43,1.42,0.67c0.46,0.25,0.91,0.52,1.35,0.8c0.43,0.29,0.86,0.61,1.26,0.94
			c0.41,0.33,0.8,0.68,1.17,1.05s0.72,0.77,1.06,1.17c0.32,0.4,0.64,0.83,0.93,1.27c0.29,0.43,0.56,0.88,0.8,1.34
			c0.25,0.46,0.47,0.94,0.67,1.42c0.2,0.48,0.38,0.97,0.53,1.47s0.28,1.01,0.38,1.52c0.11,0.51,0.18,1.03,0.24,1.55
			c0.05,0.52,0.08,1.05,0.08,1.58C367.75,175.96,367.72,176.49,367.67,177.01z M407.15,216.5c-0.05,0.52-0.13,1.04-0.23,1.55
			c-0.1,0.51-0.23,1.02-0.38,1.52c-0.16,0.5-0.33,0.99-0.53,1.48c-0.2,0.48-0.43,0.95-0.67,1.41c-0.25,0.46-0.52,0.91-0.8,1.35
			c-0.29,0.43-0.61,0.86-0.94,1.26c-0.33,0.41-0.68,0.8-1.05,1.17c-0.37,0.37-0.77,0.72-1.17,1.06c-0.4,0.33-0.83,0.64-1.27,0.93
			c-0.43,0.29-0.88,0.56-1.34,0.8c-0.46,0.25-0.94,0.47-1.42,0.67c-0.48,0.2-0.97,0.38-1.47,0.53c-0.5,0.15-1.01,0.28-1.52,0.38
			c-0.51,0.11-1.03,0.18-1.55,0.24c-0.52,0.05-1.05,0.08-1.58,0.08c-0.52,0-1.05-0.03-1.57-0.08c-0.52-0.06-1.04-0.13-1.55-0.24
			c-0.51-0.1-1.02-0.23-1.52-0.38c-0.5-0.15-0.99-0.33-1.48-0.53c-0.48-0.2-0.95-0.42-1.41-0.67c-0.46-0.24-0.91-0.51-1.35-0.8
			c-0.43-0.29-0.86-0.6-1.26-0.93c-0.41-0.34-0.8-0.69-1.17-1.06c-0.37-0.37-0.72-0.76-1.06-1.17c-0.33-0.4-0.64-0.83-0.93-1.26
			c-0.29-0.44-0.56-0.89-0.8-1.35c-0.25-0.46-0.47-0.93-0.67-1.41c-0.2-0.49-0.38-0.98-0.53-1.48s-0.28-1.01-0.38-1.52
			c-0.11-0.51-0.19-1.03-0.24-1.55c-0.05-0.52-0.08-1.05-0.08-1.57c0-0.53,0.03-1.06,0.08-1.58c0.05-0.52,0.13-1.04,0.24-1.55
			c0.1-0.51,0.23-1.02,0.38-1.52s0.33-0.99,0.53-1.47c0.2-0.48,0.42-0.96,0.67-1.42c0.24-0.46,0.51-0.91,0.8-1.35
			c0.29-0.43,0.6-0.86,0.93-1.26c0.34-0.41,0.69-0.8,1.06-1.17c0.37-0.37,0.76-0.72,1.17-1.06c0.4-0.32,0.83-0.64,1.26-0.93
			s0.89-0.56,1.35-0.8c0.46-0.24,0.93-0.47,1.41-0.67c0.48-0.2,0.98-0.38,1.48-0.53c0.5-0.15,1.01-0.28,1.52-0.38
			c0.51-0.1,1.03-0.18,1.55-0.23c1.05-0.11,2.1-0.11,3.15,0c0.52,0.05,1.04,0.13,1.55,0.23c0.51,0.1,1.02,0.23,1.52,0.38
			c0.5,0.15,0.99,0.33,1.48,0.53c0.48,0.2,0.95,0.43,1.41,0.67c0.46,0.24,0.91,0.51,1.35,0.8c0.43,0.29,0.86,0.61,1.26,0.93
			c0.41,0.34,0.8,0.69,1.17,1.06c0.37,0.37,0.72,0.76,1.05,1.17c0.33,0.4,0.65,0.83,0.94,1.26c0.28,0.44,0.55,0.89,0.8,1.35
			c0.24,0.46,0.47,0.94,0.67,1.42c0.2,0.48,0.37,0.97,0.53,1.47c0.15,0.5,0.28,1.01,0.38,1.52c0.1,0.51,0.18,1.03,0.23,1.55
			c0.06,0.52,0.08,1.05,0.08,1.58C407.23,215.45,407.21,215.98,407.15,216.5z"/>
	</g>
</g>
</svg>
