<?xml version="1.0" encoding="utf-8"?>
<!-- Generator: Adobe Illustrator 23.0.1, SVG Export Plug-In . SVG Version: 6.00 Build 0)  -->
<svg version="1.1" xmlns="http://www.w3.org/2000/svg" xmlns:xlink="http://www.w3.org/1999/xlink" x="0px" y="0px"
	 viewBox="0 0 512 512" style="enable-background:new 0 0 512 512;" xml:space="preserve">
<style type="text/css">
	.st0{fill:#333333;}
	.st1{fill:none;stroke:#333333;stroke-width:32;stroke-linecap:round;stroke-linejoin:round;stroke-miterlimit:10;}
</style>
<g id="Layer_1">
</g>
<g id="Layer_2">
	<g>
		<g>
			<path class="st0" d="M105.47,48.58c-14.74,0-28.08,5.98-37.74,15.62c-9.64,9.66-15.62,23-15.62,37.74
				c0,29.48,23.88,53.36,53.36,53.36h354.43V48.58H105.47z"/>
		</g>
		<g>
			<path class="st0" d="M235.49,321.26c0-42.24,34.36-76.6,76.6-76.6h147.8V187.3H105.47c-20.17,0-38.74-7.03-53.36-18.79V403.1
				h0.45c-0.31,2.28-0.45,4.6-0.45,6.96c0,29.48,23.88,53.36,53.36,53.36h354.42v-65.56h-147.8
				C269.86,397.86,235.49,363.5,235.49,321.26z"/>
		</g>
		<g>
			<path class="st0" d="M267.49,321.26L267.49,321.26c0,24.63,19.97,44.6,44.6,44.6h147.8v-89.2h-147.8
				C287.46,276.66,267.49,296.63,267.49,321.26z"/>
		</g>
	</g>
</g>
</svg>
