<?xml version="1.0" encoding="utf-8"?>
<!-- Generator: Adobe Illustrator 23.0.1, SVG Export Plug-In . SVG Version: 6.00 Build 0)  -->
<svg version="1.1" xmlns="http://www.w3.org/2000/svg" xmlns:xlink="http://www.w3.org/1999/xlink" x="0px" y="0px"
	 viewBox="0 0 512 512" style="enable-background:new 0 0 512 512;" xml:space="preserve">
<style type="text/css">
	.st0{fill:#333333;}
	.st1{fill:none;stroke:#333333;stroke-width:32;stroke-linecap:round;stroke-linejoin:round;stroke-miterlimit:10;}
</style>
<g id="Layer_1">
</g>
<g id="Layer_2">
	<g>
		<path class="st0" d="M250.54,48.57L77.23,151.76c-5.46,3.25-8.64,9.34-8.08,15.67c10.61,119.93,74.24,217.4,179.93,297.09
			c5.9,4.44,14.05,4.44,19.95,0c105.69-79.68,169.32-177.16,179.93-297.09c0.56-6.33-2.61-12.42-8.08-15.67L267.58,48.57
			C262.33,45.45,255.79,45.45,250.54,48.57z M247.82,379.09C190.53,326.43,155,268.28,140.34,203.17
			c-1.58-7.02,1.55-14.26,7.74-17.94l102.47-61.01c5.25-3.12,11.78-3.12,17.03,0l102.47,61.01c6.18,3.68,9.32,10.92,7.74,17.94
			c-14.66,65.11-50.19,123.27-107.48,175.92C263.96,384.92,254.17,384.92,247.82,379.09z"/>
	</g>
</g>
</svg>
