<?xml version="1.0" encoding="utf-8"?>
<!-- Generator: Adobe Illustrator 23.0.1, SVG Export Plug-In . SVG Version: 6.00 Build 0)  -->
<svg version="1.1" xmlns="http://www.w3.org/2000/svg" xmlns:xlink="http://www.w3.org/1999/xlink" x="0px" y="0px"
	 viewBox="0 0 512 512" style="enable-background:new 0 0 512 512;" xml:space="preserve">
<style type="text/css">
	.st0{fill:#333333;}
	.st1{fill:none;stroke:#333333;stroke-width:32;stroke-linecap:round;stroke-linejoin:round;stroke-miterlimit:10;}
</style>
<g id="Layer_1">
</g>
<g id="Layer_2">
	<g>
		<path class="st0" d="M467.67,321.94c0.14-0.21,0.26-0.43,0.39-0.64c0.12-0.21,0.25-0.41,0.37-0.62c0.12-0.22,0.22-0.45,0.33-0.68
			c0.1-0.22,0.21-0.43,0.3-0.65c0.09-0.22,0.17-0.45,0.25-0.67c0.08-0.24,0.17-0.47,0.25-0.71c0.07-0.23,0.12-0.46,0.18-0.69
			c0.06-0.24,0.13-0.48,0.18-0.73c0.05-0.27,0.09-0.54,0.12-0.82c0.03-0.21,0.07-0.42,0.09-0.64c0.1-0.99,0.1-1.98,0-2.96
			c-0.02-0.21-0.06-0.42-0.09-0.64c-0.04-0.27-0.07-0.55-0.12-0.82c-0.05-0.25-0.12-0.49-0.18-0.73c-0.06-0.23-0.11-0.46-0.18-0.69
			c-0.07-0.24-0.16-0.47-0.25-0.71c-0.08-0.23-0.16-0.45-0.25-0.67c-0.09-0.22-0.2-0.44-0.3-0.65c-0.11-0.23-0.21-0.45-0.33-0.68
			c-0.11-0.21-0.24-0.41-0.36-0.62c-0.13-0.21-0.25-0.43-0.39-0.64c-0.16-0.23-0.33-0.45-0.5-0.68c-0.13-0.17-0.24-0.34-0.38-0.5
			c-0.32-0.39-0.65-0.76-1-1.11l-32.53-32.53l-1.44-1.44c-5.86-5.86-15.35-5.86-21.21,0c-5.86,5.86-5.86,15.35,0,21.21l1.44,1.44
			l6.93,6.93h-66.67c-22.9,0-44.43-8.92-60.63-25.11L274.18,256l17.51-17.51c16.19-16.19,37.72-25.11,60.63-25.11h66.67l-6.93,6.93
			l-1.44,1.44c-5.86,5.86-5.86,15.35,0,21.21c2.93,2.93,6.77,4.39,10.61,4.39s7.68-1.46,10.61-4.39l1.44-1.44l32.53-32.53
			c0.35-0.35,0.69-0.72,1-1.11c0.13-0.16,0.25-0.33,0.37-0.5c0.17-0.22,0.34-0.44,0.5-0.68c0.14-0.21,0.26-0.43,0.39-0.64
			c0.12-0.21,0.25-0.41,0.37-0.62c0.12-0.22,0.22-0.45,0.33-0.68c0.1-0.22,0.21-0.43,0.3-0.65c0.09-0.22,0.17-0.45,0.25-0.67
			c0.08-0.24,0.17-0.47,0.25-0.71c0.07-0.23,0.12-0.46,0.18-0.69c0.06-0.24,0.13-0.48,0.18-0.73c0.05-0.27,0.09-0.54,0.12-0.82
			c0.03-0.21,0.07-0.42,0.09-0.64c0.1-0.99,0.1-1.98,0-2.96c-0.02-0.21-0.06-0.42-0.09-0.64c-0.04-0.27-0.07-0.55-0.12-0.82
			c-0.05-0.25-0.12-0.49-0.18-0.73c-0.06-0.23-0.11-0.46-0.18-0.69c-0.07-0.24-0.16-0.47-0.25-0.71c-0.08-0.23-0.16-0.45-0.25-0.67
			c-0.09-0.22-0.2-0.44-0.3-0.65c-0.11-0.23-0.21-0.45-0.33-0.68c-0.11-0.21-0.24-0.41-0.36-0.62c-0.13-0.21-0.25-0.43-0.39-0.64
			c-0.16-0.23-0.33-0.45-0.5-0.68c-0.13-0.17-0.24-0.34-0.38-0.5c-0.32-0.39-0.65-0.76-1-1.11l-33.96-33.96
			c-5.86-5.86-15.35-5.86-21.21,0c-5.86,5.86-5.86,15.35,0,21.21l8.37,8.37h-66.67c-30.91,0-59.98,12.04-81.84,33.9l-17.51,17.51
			l-17.51-17.51c-21.86-21.86-50.92-33.9-81.84-33.9H56.8c-8.28,0-15,6.71-15,15c0,8.28,6.71,15,15,15h96.82
			c22.9,0,44.43,8.92,60.63,25.11L231.76,256l-17.51,17.51c-16.19,16.19-37.72,25.11-60.63,25.11H56.8c-8.28,0-15,6.71-15,15
			s6.71,15,15,15h96.82c30.91,0,59.98-12.04,81.84-33.9l17.51-17.51l17.51,17.51c21.86,21.86,50.92,33.9,81.84,33.9h66.67
			l-8.37,8.37c-5.86,5.86-5.86,15.35,0,21.21c2.93,2.93,6.77,4.39,10.61,4.39s7.68-1.46,10.61-4.39l33.96-33.96
			c0.35-0.35,0.69-0.72,1-1.11c0.13-0.16,0.25-0.33,0.37-0.5C467.34,322.4,467.51,322.18,467.67,321.94z"/>
	</g>
</g>
</svg>
