<?xml version="1.0" encoding="utf-8"?>
<!-- Generator: Adobe Illustrator 23.0.1, SVG Export Plug-In . SVG Version: 6.00 Build 0)  -->
<svg version="1.1" xmlns="http://www.w3.org/2000/svg" xmlns:xlink="http://www.w3.org/1999/xlink" x="0px" y="0px"
	 viewBox="0 0 512 512" style="enable-background:new 0 0 512 512;" xml:space="preserve">
<style type="text/css">
	.st0{fill:#333333;}
	.st1{fill:none;stroke:#333333;stroke-width:32;stroke-linecap:round;stroke-linejoin:round;stroke-miterlimit:10;}
</style>
<g id="Layer_1">
</g>
<g id="Layer_2">
	<g>
		<g>
			<path class="st0" d="M256,43.5C138.64,43.5,43.5,138.64,43.5,256c0,117.36,95.14,212.5,212.5,212.5S468.5,373.36,468.5,256
				C468.5,138.64,373.36,43.5,256,43.5z M256,96.86c33.36,0,60.5,27.14,60.5,60.5s-27.14,60.5-60.5,60.5s-60.5-27.14-60.5-60.5
				S222.64,96.86,256,96.86z M256,415.14c-33.36,0-60.5-27.14-60.5-60.5s27.14-60.5,60.5-60.5s60.5,27.14,60.5,60.5
				S289.36,415.14,256,415.14z M382.73,272H129.27c-8.84,0-16-7.16-16-16s7.16-16,16-16h253.46c8.84,0,16,7.16,16,16
				S391.57,272,382.73,272z"/>
		</g>
		<g>
			<circle class="st0" cx="256" cy="354.63" r="28.5"/>
		</g>
		<g>
			<circle class="st0" cx="256" cy="157.37" r="28.5"/>
		</g>
	</g>
</g>
</svg>
