<?xml version="1.0" encoding="utf-8"?>
<!-- Generator: Adobe Illustrator 23.0.1, SVG Export Plug-In . SVG Version: 6.00 Build 0)  -->
<svg version="1.1" xmlns="http://www.w3.org/2000/svg" xmlns:xlink="http://www.w3.org/1999/xlink" x="0px" y="0px"
	 viewBox="0 0 512 512" style="enable-background:new 0 0 512 512;" xml:space="preserve">
<style type="text/css">
	.st0{fill:#333333;}
	.st1{fill:none;stroke:#333333;stroke-width:32;stroke-linecap:round;stroke-linejoin:round;stroke-miterlimit:10;}
</style>
<g id="Layer_1">
</g>
<g id="Layer_2">
	<g>
		<g>
			<path class="st0" d="M448.49,163.76H387.4v-57.32c0-24.91-20.27-45.18-45.18-45.18H169.77c-24.91,0-45.18,20.27-45.18,45.18
				v57.32H63.51c-11.05,0-20.01,8.96-20.01,20.01v85.01h425v-85.01C468.5,172.72,459.54,163.76,448.49,163.76z M156.6,106.44
				c0-7.27,5.91-13.18,13.18-13.18h172.46c7.27,0,13.18,5.91,13.18,13.18v57.32H156.6V106.44z"/>
		</g>
		<g>
			<path class="st0" d="M395.4,310.99c0,16.55-13.41,29.96-29.96,29.96c-16.55,0-29.96-13.41-29.96-29.96v-10.21H176.51v10.21
				c0,16.55-13.41,29.96-29.96,29.96h0c-16.55,0-29.96-13.41-29.96-29.96v-10.21H43.5v129.95c0,11.05,8.96,20.01,20.01,20.01h384.99
				c11.05,0,20.01-8.96,20.01-20.01V300.78h-73.1V310.99z"/>
		</g>
	</g>
</g>
</svg>
