<?xml version="1.0" encoding="utf-8"?>
<!-- Generator: Adobe Illustrator 23.0.1, SVG Export Plug-In . SVG Version: 6.00 Build 0)  -->
<svg version="1.1" xmlns="http://www.w3.org/2000/svg" xmlns:xlink="http://www.w3.org/1999/xlink" x="0px" y="0px"
	 viewBox="0 0 512 512" style="enable-background:new 0 0 512 512;" xml:space="preserve">
<style type="text/css">
	.st0{fill:#333333;}
	.st1{fill:none;stroke:#333333;stroke-width:32;stroke-linecap:round;stroke-linejoin:round;stroke-miterlimit:10;}
</style>
<g id="Layer_1">
</g>
<g id="Layer_2">
	<g>
		<g>
			<path class="st0" d="M90.29,436.87h331.42c8.37,0,15.16-6.79,15.16-15.16v-35.93c0-8.37-6.79-15.16-15.16-15.16H90.29
				c-8.37,0-15.16,6.79-15.16,15.16v35.93C75.13,430.08,81.92,436.87,90.29,436.87z"/>
		</g>
		<g>
			<path class="st0" d="M319.84,75.13h-48.68c-8.37,0-15.16,6.79-15.16,15.16v108.22c0,8.37-6.79,15.16-15.16,15.16h-71.42
				c-8.37,0-15.16-6.79-15.16-15.16V90.29c0-8.37-6.79-15.16-15.16-15.16h-48.8c-8.37,0-15.16,6.79-15.16,15.16v191.57
				c0,8.37,6.79,15.16,15.16,15.16h331.42c8.37,0,15.16-6.79,15.16-15.16v-93.14c0-4.11-1.67-8.05-4.63-10.9L330.38,79.39
				C327.55,76.65,323.77,75.13,319.84,75.13z"/>
		</g>
	</g>
</g>
</svg>
