<?xml version="1.0" encoding="utf-8"?>
<!-- Generator: Adobe Illustrator 23.0.1, SVG Export Plug-In . SVG Version: 6.00 Build 0)  -->
<svg version="1.1" xmlns="http://www.w3.org/2000/svg" xmlns:xlink="http://www.w3.org/1999/xlink" x="0px" y="0px"
	 viewBox="0 0 512 512" style="enable-background:new 0 0 512 512;" xml:space="preserve">
<style type="text/css">
	.st0{fill:#333333;}
	.st1{fill:none;stroke:#333333;stroke-width:32;stroke-linecap:round;stroke-linejoin:round;stroke-miterlimit:10;}
</style>
<g id="Layer_1">
</g>
<g id="Layer_2">
	<g>
		<g>
			<path class="st0" d="M418.77,47.66c13.86-3.83,27.56,6.59,27.56,20.97v288.25c0,18.99-23.38,43.56-57.65,58.74
				c-5.1,2.26-10.19,4.19-15.2,5.82c-33.91,10.97-64.53,7.55-72.06-9.46c-8.64-19.52,16.41-49.53,55.96-67.04
				c5.41-2.4,10.79-4.43,16.1-6.12V134.58l-161.66,46.56v217.85c-2.19,11.7-12.19,24.93-27.43,36.58
				c-8.46,6.47-18.54,12.45-29.77,17.43c-39.55,17.51-78.61,15.88-87.25-3.64c-8.65-19.52,16.41-49.53,55.95-67.04
				c5.25-2.32,10.5-4.31,15.65-5.96V141.57c0-9.79,6.53-18.37,15.96-20.97L418.77,47.66z"/>
		</g>
	</g>
</g>
</svg>
