<?xml version="1.0" encoding="utf-8"?>
<!-- Generator: Adobe Illustrator 23.0.1, SVG Export Plug-In . SVG Version: 6.00 Build 0)  -->
<svg version="1.1" xmlns="http://www.w3.org/2000/svg" xmlns:xlink="http://www.w3.org/1999/xlink" x="0px" y="0px"
	 viewBox="0 0 512 512" style="enable-background:new 0 0 512 512;" xml:space="preserve">
<style type="text/css">
	.st0{fill:#333333;}
	.st1{fill:none;stroke:#333333;stroke-width:32;stroke-linecap:round;stroke-linejoin:round;stroke-miterlimit:10;}
</style>
<g id="Layer_1">
</g>
<g id="Layer_2">
	<g>
		<g>
			<path class="st0" d="M167.53,90.4h176.94c8.84,0,16-7.16,16-16s-7.16-16-16-16H167.53c-8.84,0-16,7.16-16,16
				S158.7,90.4,167.53,90.4z"/>
		</g>
		<g>
			<path class="st0" d="M382.2,173.17l30.07-30.07c6.25-6.25,6.25-16.38,0-22.63c-6.25-6.25-16.38-6.25-22.63,0l-30.85,30.85
				c-28.46-21.92-64.1-34.96-102.79-34.96c-93.12,0-168.62,75.49-168.62,168.62S162.88,453.6,256,453.6s168.62-75.49,168.62-168.62
				C424.62,242.08,408.59,202.93,382.2,173.17z M272,271.63c0,8.84-7.16,16-16,16s-16-7.16-16-16v-75.72c0-8.84,7.16-16,16-16
				s16,7.16,16,16V271.63z"/>
		</g>
	</g>
</g>
</svg>
