<?xml version="1.0" encoding="utf-8"?>
<!-- Generator: Adobe Illustrator 23.0.1, SVG Export Plug-In . SVG Version: 6.00 Build 0)  -->
<svg version="1.1" xmlns="http://www.w3.org/2000/svg" xmlns:xlink="http://www.w3.org/1999/xlink" x="0px" y="0px"
	 viewBox="0 0 512 512" style="enable-background:new 0 0 512 512;" xml:space="preserve">
<style type="text/css">
	.st0{fill:#333333;}
	.st1{fill:none;stroke:#333333;stroke-width:32;stroke-linecap:round;stroke-linejoin:round;stroke-miterlimit:10;}
</style>
<g id="Layer_1">
</g>
<g id="Layer_2">
	<g>
		<g>
			<path class="st0" d="M425.08,86.92c-51.75-51.75-135.64-51.75-187.38,0c-21.72,21.72-34.32,49.11-37.81,77.4l147.79,147.79
				c28.29-3.49,55.68-16.08,77.4-37.81C476.83,222.56,476.83,138.67,425.08,86.92z"/>
		</g>
		<g>
			<path class="st0" d="M189.61,199.29c-4.9-4.9-13.01-4.35-17.2,1.18L60.21,348.56c-3.45,4.55-3.01,10.95,1.03,14.99l8.45,8.45
				L62.68,379c-19.42,19.42-19.42,50.91,0,70.33h0c19.42,19.42,50.91,19.42,70.33,0l7.01-7.01l8.45,8.45
				c4.04,4.04,10.44,4.48,14.99,1.03l148.09-112.2c5.53-4.19,6.08-12.29,1.18-17.2L189.61,199.29z M212.29,322.34l-25.78,25.77
				c-3.12,3.13-7.22,4.69-11.31,4.69c-4.1,0-8.19-1.56-11.31-4.69c-6.25-6.24-6.25-16.37,0-22.62l25.77-25.78
				c6.25-6.25,16.38-6.25,22.63,0S218.54,316.09,212.29,322.34z"/>
		</g>
	</g>
</g>
</svg>
