<?xml version="1.0" encoding="utf-8"?>
<!-- Generator: Adobe Illustrator 23.0.1, SVG Export Plug-In . SVG Version: 6.00 Build 0)  -->
<svg version="1.1" xmlns="http://www.w3.org/2000/svg" xmlns:xlink="http://www.w3.org/1999/xlink" x="0px" y="0px"
	 viewBox="0 0 512 512" style="enable-background:new 0 0 512 512;" xml:space="preserve">
<style type="text/css">
	.st0{fill:#333333;}
	.st1{fill:none;stroke:#333333;stroke-width:32;stroke-linecap:round;stroke-linejoin:round;stroke-miterlimit:10;}
</style>
<g id="Layer_1">
</g>
<g id="Layer_2">
	<g>
		<g>
			<path class="st0" d="M336.02,127.29v43.09H200.96c-31.42,0-56.98,25.57-56.98,56.98v82.25h-75.5
				c-13.79,0-24.98-11.19-24.98-24.98V127.29c0-13.81,11.19-24.99,24.98-24.99h242.56C324.84,102.3,336.02,113.48,336.02,127.29z"/>
		</g>
		<g>
			<path class="st0" d="M443.52,202.38H200.96c-13.8,0-24.98,11.18-24.98,24.98v157.35c0,13.8,11.18,24.99,24.98,24.99h242.56
				c13.79,0,24.98-11.19,24.98-24.99V227.36C468.5,213.56,457.31,202.38,443.52,202.38z M267.18,338.38
				c-17.86,0-32.34-14.48-32.34-32.34s14.48-32.34,32.34-32.34s32.34,14.48,32.34,32.34S285.04,338.38,267.18,338.38z M377.3,338.38
				c-17.86,0-32.34-14.48-32.34-32.34s14.48-32.34,32.34-32.34s32.34,14.48,32.34,32.34S395.16,338.38,377.3,338.38z"/>
		</g>
	</g>
</g>
</svg>
