<?xml version="1.0" encoding="utf-8"?>
<!-- Generator: Adobe Illustrator 23.0.1, SVG Export Plug-In . SVG Version: 6.00 Build 0)  -->
<svg version="1.1" xmlns="http://www.w3.org/2000/svg" xmlns:xlink="http://www.w3.org/1999/xlink" x="0px" y="0px"
	 viewBox="0 0 512 512" style="enable-background:new 0 0 512 512;" xml:space="preserve">
<style type="text/css">
	.st0{fill:#333333;}
	.st1{fill:none;stroke:#333333;stroke-width:32;stroke-linecap:round;stroke-linejoin:round;stroke-miterlimit:10;}
</style>
<g id="Layer_1">
</g>
<g id="Layer_2">
	<g>
		<g>
			<g>
				<path class="st0" d="M378.38,183.45l-109.76-63.37c-13.3-7.68-29.93,1.92-29.93,17.28v237.28c0,15.36,16.63,24.96,29.93,17.28
					l109.76-63.37V183.45z"/>
			</g>
			<g>
				<rect x="400.91" y="183.45" class="st0" width="48.58" height="145.3"/>
			</g>
		</g>
		<g>
			<path class="st0" d="M129.25,256l51.81-51.81c6.25-6.25,6.25-16.38,0-22.63c-6.25-6.25-16.38-6.25-22.63,0l-51.81,51.81
				l-51.81-51.81c-6.25-6.25-16.38-6.25-22.63,0c-6.25,6.25-6.25,16.38,0,22.63L83.99,256l-51.81,51.81
				c-6.25,6.25-6.25,16.38,0,22.63c3.12,3.12,7.22,4.69,11.31,4.69s8.19-1.56,11.31-4.69l51.81-51.81l51.81,51.81
				c3.12,3.12,7.22,4.69,11.31,4.69s8.19-1.56,11.31-4.69c6.25-6.25,6.25-16.38,0-22.63L129.25,256z"/>
		</g>
	</g>
</g>
</svg>
