<?xml version="1.0" encoding="utf-8"?>
<!-- Generator: Adobe Illustrator 23.0.1, SVG Export Plug-In . SVG Version: 6.00 Build 0)  -->
<svg version="1.1" xmlns="http://www.w3.org/2000/svg" xmlns:xlink="http://www.w3.org/1999/xlink" x="0px" y="0px"
	 viewBox="0 0 512 512" style="enable-background:new 0 0 512 512;" xml:space="preserve">
<style type="text/css">
	.st0{fill:#333333;}
	.st1{fill:none;stroke:#333333;stroke-width:32;stroke-linecap:round;stroke-linejoin:round;stroke-miterlimit:10;}
</style>
<g id="Layer_1">
</g>
<g id="Layer_2">
	<g>
		<g>
			<path class="st0" d="M256,86.02c8.84,0,16-7.16,16-16V43.5c0-8.84-7.16-16-16-16s-16,7.16-16,16v26.52
				C240,78.86,247.16,86.02,256,86.02z"/>
		</g>
		<g>
			<path class="st0" d="M468.5,240h-26.52c-8.84,0-16,7.16-16,16s7.16,16,16,16h26.52c8.84,0,16-7.16,16-16S477.34,240,468.5,240z"
				/>
		</g>
		<g>
			<path class="st0" d="M398.82,376.19c-6.25-6.25-16.38-6.25-22.63,0c-6.25,6.25-6.25,16.38,0,22.63l18.75,18.75
				c3.12,3.12,7.22,4.69,11.31,4.69s8.19-1.56,11.31-4.69c6.25-6.25,6.25-16.38,0-22.63L398.82,376.19z"/>
		</g>
		<g>
			<path class="st0" d="M256,425.98c-8.84,0-16,7.16-16,16v26.52c0,8.84,7.16,16,16,16s16-7.16,16-16v-26.52
				C272,433.14,264.84,425.98,256,425.98z"/>
		</g>
		<g>
			<path class="st0" d="M140.5,328.19L328.19,140.5c-20.93-13.11-45.67-20.7-72.19-20.7c-75.22,0-136.19,60.97-136.19,136.19
				C119.81,282.52,127.4,307.26,140.5,328.19z"/>
		</g>
		<g>
			<path class="st0" d="M372.86,186.03l54.09-54.09c6.25-6.25,6.25-16.38,0-22.63c-6.25-6.25-16.38-6.25-22.63,0L103.8,409.83
				c-6.25,6.25-6.25,16.38,0,22.63c3.12,3.12,7.22,4.69,11.31,4.69s8.19-1.56,11.31-4.69l59.6-59.6
				c20.45,12.27,44.38,19.34,69.97,19.34c75.22,0,136.19-60.97,136.19-136.19C392.19,230.41,385.13,206.48,372.86,186.03z"/>
		</g>
		<g>
			<path class="st0" d="M70.02,240H43.5c-8.84,0-16,7.16-16,16s7.16,16,16,16h26.52c8.84,0,16-7.16,16-16S78.86,240,70.02,240z"/>
		</g>
		<g>
			<path class="st0" d="M124.49,140.49c4.09,0,8.19-1.56,11.31-4.69c6.25-6.25,6.25-16.38,0-22.63l-18.75-18.75
				c-6.25-6.25-16.38-6.25-22.63,0c-6.25,6.25-6.25,16.38,0,22.63l18.75,18.75C116.3,138.93,120.4,140.49,124.49,140.49z"/>
		</g>
	</g>
</g>
</svg>
